<svg id="Behance_logo" xmlns="http://www.w3.org/2000/svg" width="103.842" height="19.271" viewBox="0 0 103.842 19.271">
  <path id="Path_10111" data-name="Path 10111" d="M8.924,0a9.423,9.423,0,0,1,2.45.269,5.4,5.4,0,0,1,1.911.749A3.15,3.15,0,0,1,14.515,2.45a5.474,5.474,0,0,1,.413,2.181,3.787,3.787,0,0,1-.682,2.383,4.861,4.861,0,0,1-1.911,1.566,4.5,4.5,0,0,1,2.585,1.768,5.624,5.624,0,0,1,.337,5.447,4.441,4.441,0,0,1-1.5,1.7,6.937,6.937,0,0,1-2.181.951,10.221,10.221,0,0,1-2.45.337L0,18.8V0ZM8.377,7.628a3.046,3.046,0,0,0,1.835-.547,2,2,0,0,0,.682-1.7,2.579,2.579,0,0,0-.2-1.086,1.881,1.881,0,0,0-.615-.682,3.445,3.445,0,0,0-.884-.337,5.532,5.532,0,0,0-1.086-.067H4.159V7.636C4.159,7.628,8.377,7.628,8.377,7.628Zm.2,8.04a6.113,6.113,0,0,0,1.162-.135,2.3,2.3,0,0,0,.951-.413,2.56,2.56,0,0,0,.682-.749,3.27,3.27,0,0,0,.269-1.229,2.627,2.627,0,0,0-.817-2.113,3.578,3.578,0,0,0-2.181-.615H4.159V15.66h4.42Z" fill="#1869ff"/>
  <path id="Path_10112" data-name="Path 10112" d="M25.722,15.9a3.325,3.325,0,0,0,2.45.817,3.7,3.7,0,0,0,1.979-.547,2.7,2.7,0,0,0,1.019-1.229H34.5a6.687,6.687,0,0,1-2.45,3.544A7.252,7.252,0,0,1,28.1,19.573a7.928,7.928,0,0,1-2.93-.547,5.421,5.421,0,0,1-2.181-1.5,5.467,5.467,0,0,1-1.364-2.248,8.077,8.077,0,0,1-.48-2.93,7.807,7.807,0,0,1,.48-2.863,7.426,7.426,0,0,1,1.431-2.315,6.86,6.86,0,0,1,2.181-1.5A7.7,7.7,0,0,1,28.1,5.126a6.3,6.3,0,0,1,3.065.682,5.585,5.585,0,0,1,2.113,1.835,8.332,8.332,0,0,1,1.229,2.585,14.457,14.457,0,0,1,.135,3H24.77A3.922,3.922,0,0,0,25.722,15.9Zm4.294-7.156A2.949,2.949,0,0,0,27.9,8a3.285,3.285,0,0,0-1.5.337,3.476,3.476,0,0,0-.951.749,1.835,1.835,0,0,0-.48.951,4.713,4.713,0,0,0-.135.884h6.129A3.652,3.652,0,0,0,30.016,8.746ZM24.021,1.6h7.628V3.434H24.021Z" transform="translate(-3.992 -0.302)" fill="#1869ff"/>
  <path id="Path_10113" data-name="Path 10113" d="M43.463,0V7.081h.067a4,4,0,0,1,1.835-1.7,5.215,5.215,0,0,1,2.181-.547A6.03,6.03,0,0,1,50,5.245a3.62,3.62,0,0,1,1.5,1.162,4.682,4.682,0,0,1,.749,1.768,11.848,11.848,0,0,1,.2,2.315v8.377H48.7v-7.7a4.688,4.688,0,0,0-.547-2.517,2,2,0,0,0-1.827-.825,2.62,2.62,0,0,0-2.181.884,4.976,4.976,0,0,0-.682,3v7.156H39.716V0Z" transform="translate(-7.496)" fill="#1869ff"/>
  <path id="Path_10114" data-name="Path 10114" d="M58.549,8.35a5.064,5.064,0,0,1,1.5-1.431,6.745,6.745,0,0,1,2.046-.749,12.681,12.681,0,0,1,2.248-.2c.682,0,1.364.067,2.113.135a5.543,5.543,0,0,1,1.911.547A3.95,3.95,0,0,1,69.8,7.811a3.444,3.444,0,0,1,.547,1.979v7.156a14.374,14.374,0,0,0,.135,1.768,2.807,2.807,0,0,0,.48,1.3H67.145a1.706,1.706,0,0,1-.269-.615,2.347,2.347,0,0,1-.067-.682,5.291,5.291,0,0,1-2.113,1.3,7.687,7.687,0,0,1-2.45.337,5.476,5.476,0,0,1-1.835-.269,4.477,4.477,0,0,1-1.5-.749,3.777,3.777,0,0,1-1.019-1.3,4.958,4.958,0,0,1-.337-1.835,3.918,3.918,0,0,1,.413-1.911,4.514,4.514,0,0,1,1.019-1.229,5.094,5.094,0,0,1,1.5-.682,12.666,12.666,0,0,1,1.7-.337l1.633-.2c.547-.067,1.019-.135,1.431-.2a3.274,3.274,0,0,0,1.019-.48.978.978,0,0,0,.337-.884,1.8,1.8,0,0,0-.2-.951,1.992,1.992,0,0,0-.547-.547,2.465,2.465,0,0,0-.749-.269,4.218,4.218,0,0,0-.951-.067,2.5,2.5,0,0,0-1.7.48,2.259,2.259,0,0,0-.749,1.566H57.96A3.785,3.785,0,0,1,58.549,8.35Zm7.426,5.313c-.2.067-.48.135-.749.2s-.547.067-.884.135c-.269.067-.615.067-.884.135l-.817.2a1.616,1.616,0,0,0-.682.337,1.89,1.89,0,0,0-.48.547,1.332,1.332,0,0,0-.2.884,1.466,1.466,0,0,0,.2.817,1.761,1.761,0,0,0,.48.547,2.465,2.465,0,0,0,.749.269,3.629,3.629,0,0,0,.884.067,3.765,3.765,0,0,0,1.7-.337,2.679,2.679,0,0,0,.884-.884,2.032,2.032,0,0,0,.337-1.019,3.938,3.938,0,0,0,.067-.817V13.317A2.779,2.779,0,0,1,65.975,13.662Z" transform="translate(-10.863 -1.126)" fill="#1869ff"/>
  <path id="Path_10115" data-name="Path 10115" d="M79.413,6.3V8.215h.067a4,4,0,0,1,1.835-1.7,5.815,5.815,0,0,1,2.315-.547,6.03,6.03,0,0,1,2.45.413,3.233,3.233,0,0,1,1.5,1.162A6.131,6.131,0,0,1,88.4,9.31a11.847,11.847,0,0,1,.2,2.315V20H84.852v-7.7A4.688,4.688,0,0,0,84.3,9.79a2.067,2.067,0,0,0-1.911-.884,2.754,2.754,0,0,0-2.248,1.019,4.976,4.976,0,0,0-.682,3v7.156H75.717V6.3Z" transform="translate(-14.291 -1.126)" fill="#1869ff"/>
  <path id="Path_10116" data-name="Path 10116" d="M100.324,8.752a2.557,2.557,0,0,0-1.5.413,3.09,3.09,0,0,0-1.019,1.086,4.526,4.526,0,0,0-.547,1.431,6.16,6.16,0,0,0-.135,1.566,11.261,11.261,0,0,0,.135,1.5,3.963,3.963,0,0,0,.547,1.364,3.339,3.339,0,0,0,.951,1.019,2.62,2.62,0,0,0,1.5.413,3.065,3.065,0,0,0,2.113-.749,3.159,3.159,0,0,0,.884-2.046h3.612a6.288,6.288,0,0,1-2.113,4.159,6.868,6.868,0,0,1-4.5,1.431,7.224,7.224,0,0,1-2.8-.547,6.035,6.035,0,0,1-2.181-1.431,6.81,6.81,0,0,1-1.431-2.181,7.591,7.591,0,0,1-.48-2.8,7.93,7.93,0,0,1,.48-2.93A7.42,7.42,0,0,1,95.214,8.07,7.058,7.058,0,0,1,97.394,6.5a8.069,8.069,0,0,1,2.93-.547,8.741,8.741,0,0,1,2.315.337,6,6,0,0,1,1.979.951,4.206,4.206,0,0,1,1.431,1.633,5.846,5.846,0,0,1,.615,2.315h-3.679A2.385,2.385,0,0,0,100.324,8.752Z" transform="translate(-17.622 -1.124)" fill="#1869ff"/>
  <path id="Path_10117" data-name="Path 10117" d="M115.89,16.723a3.433,3.433,0,0,0,2.45.817,3.7,3.7,0,0,0,1.979-.547,2.7,2.7,0,0,0,1.019-1.229H124.6a6.687,6.687,0,0,1-2.45,3.544,7.252,7.252,0,0,1-3.949,1.086,7.928,7.928,0,0,1-2.93-.547,5.421,5.421,0,0,1-2.181-1.5,5.467,5.467,0,0,1-1.364-2.248,8.077,8.077,0,0,1-.48-2.93,7.807,7.807,0,0,1,.48-2.863,7.273,7.273,0,0,1,1.431-2.315,6.859,6.859,0,0,1,2.181-1.5,7.98,7.98,0,0,1,2.863-.547,5.869,5.869,0,0,1,3,.682,5.586,5.586,0,0,1,2.113,1.835,8.332,8.332,0,0,1,1.229,2.585,9.144,9.144,0,0,1,.269,3.065h-9.876a3.868,3.868,0,0,0,.951,2.61Zm4.361-7.156a2.949,2.949,0,0,0-2.113-.749,3.285,3.285,0,0,0-1.5.337,2.688,2.688,0,0,0-.951.749,2.541,2.541,0,0,0-.48.951,4.714,4.714,0,0,0-.135.884H121.2a4.711,4.711,0,0,0-.951-2.172Z" transform="translate(-20.997 -1.122)" fill="#1869ff"/>
</svg>
