<svg id="facebook-app-logo" xmlns="http://www.w3.org/2000/svg" width="114.449" height="22.151" viewBox="0 0 114.449 22.151">
  <path id="Path_10118" data-name="Path 10118" d="M7.75,22.31H3.438V11.559H.5v-3.5H3.438V5.568C3.438,2.617,4.737.5,9.038.5c.91,0,2.338.183,2.338.183v3.25h-1.5c-1.528,0-2.125.465-2.125,1.75V8.059h3.568L11,11.559H7.75Zm9.9-14.531c-.063,0-.127,0-.191,0-4,0-5.828,3.008-5.828,7.278,0,5.379,2.373,7.532,5.86,7.532a4.213,4.213,0,0,0,4.1-2.406v2.125h4.1V8.06h-4.1v2.192A4.2,4.2,0,0,0,17.646,7.779Zm1.043,3.367c1.68,0,2.688,1.171,2.688,3.164l0,2.035a2.727,2.727,0,0,1-2.691,2.914c-2.858,0-2.781-3.086-2.781-4.114,0-3.457,1.523-4,2.781-4Zm8.657,4.04c0-1.732-.083-7.4,7.3-7.4,2.963,0,4.2.942,4.2.942l-.995,3.085a6.491,6.491,0,0,0-2.846-.681,3.076,3.076,0,0,0-3.379,3.3l0,1.508a3.148,3.148,0,0,0,3.38,3.371,7.069,7.069,0,0,0,2.819-.687l.992,3.02s-1.131.948-4.155.948c-7.029,0-7.32-5.084-7.32-7.408ZM62.9,7.783c4,0,5.857,3.008,5.857,7.278,0,5.379-2.373,7.532-5.86,7.532a4.454,4.454,0,0,1-4.266-2.406v2.125l-4.05,0V.933l4.3-.375v9.5C59.5,8.4,61.539,7.783,62.9,7.783Zm-1.206,3.364c-1.68,0-2.813,1.171-2.813,3.164l0,2.035a2.724,2.724,0,0,0,2.817,2.914c2.858,0,2.781-3.086,2.781-4.114,0-3.457-1.523-4-2.781-4ZM46.307,7.795c-4.536,0-6.93,2.473-6.93,6.867v.816c0,5.7,3.363,7.172,7.372,7.172,3.9,0,5.66-1.09,5.66-1.09l-.8-2.9a12.547,12.547,0,0,1-4.34.883c-2.348,0-3.358-.6-3.617-2.855h9.106V14.357c0-4.767-2.687-6.563-6.446-6.563Zm.109,2.906c1.57,0,2.587.963,2.531,3.2H43.655c.092-2.35,1.189-3.2,2.762-3.2ZM77.328,7.775c-4.658,0-7.11,2.625-7.11,7.328,0,6.454,4.227,7.493,7.118,7.493,4.232,0,7.047-2.278,7.047-7.434C84.384,9.8,81.218,7.775,77.328,7.775Zm-.059,3.383c2.048,0,2.86,1.533,2.86,3.278v1.5c0,2.114-1.136,3.336-2.867,3.336-1.62,0-2.758-1.144-2.758-3.336v-1.5C74.5,12.1,75.859,11.158,77.27,11.158ZM92.95,7.775c-4.658,0-7.11,2.625-7.11,7.328,0,6.454,4.227,7.493,7.118,7.493,4.232,0,7.047-2.278,7.047-7.434C100.006,9.8,96.84,7.775,92.95,7.775Zm-.059,3.383c2.048,0,2.859,1.533,2.859,3.278v1.5c0,2.114-1.136,3.336-2.867,3.336-1.62,0-2.758-1.144-2.758-3.336v-1.5C90.126,12.1,91.481,11.158,92.892,11.158Zm8.739,11.151V.933l4.313-.375V14.886l4.279-6.827h4.555l-4.464,7.071,4.635,7.18h-4.568l-4.438-6.972V22.31Z" transform="translate(-0.5 -0.5)" fill="#1977f3"/>
</svg>
