<svg id="Group_10303" data-name="Group 10303" xmlns="http://www.w3.org/2000/svg" width="99.646" height="27.306" viewBox="0 0 99.646 27.306">
  <path id="Octicons-logo-github" d="M27.812,15.054h-.03c.014,0,.023.014.036.017l.009,0Zm.006.017c-.14,0-.491.074-.862.074-1.171,0-1.576-.54-1.576-1.246V9.2h2.386a.259.259,0,0,0,.24-.285V6.364a.261.261,0,0,0-.24-.255H25.381V2.942a.186.186,0,0,0-.21-.2H21.929a.186.186,0,0,0-.21.2V6.2s-1.636.405-1.741.42a.257.257,0,0,0-.2.255V8.916a.27.27,0,0,0,.255.285H21.7v4.923c0,3.662,2.552,4.038,4.293,4.038a6.419,6.419,0,0,0,1.906-.33.241.241,0,0,0,.135-.24V15.34A.265.265,0,0,0,27.818,15.071Zm35.566-3.3c0-2.717-1.1-3.077-2.251-2.957a3.894,3.894,0,0,0-1.621.51V14.6a3.645,3.645,0,0,0,1.831.54C62.889,15.19,63.384,14.634,63.384,11.767Zm3.647-.24c0,5.148-1.666,6.619-4.578,6.619A5.745,5.745,0,0,1,58.671,16.9a3.549,3.549,0,0,1-.135.78.213.213,0,0,1-.21.12H56.1a.28.28,0,0,1-.285-.255L55.85.871A.263.263,0,0,1,56.1.615h3.2a.263.263,0,0,1,.255.255V6.529a6.041,6.041,0,0,1,3.032-.8l-.015-.03C64.375,5.7,67.032,6.379,67.032,11.527ZM53.944,6.109H50.792a.253.253,0,0,0-.255.285v8.165a3.685,3.685,0,0,1-1.951.585c-1.126,0-1.456-.51-1.456-1.636V6.379a.263.263,0,0,0-.255-.255H43.662a.263.263,0,0,0-.255.255v7.67c0,3.3,1.846,4.128,4.383,4.128a7.48,7.48,0,0,0,3.782-1.156,5.436,5.436,0,0,0,.12.675.266.266,0,0,0,.24.135h2.011a.244.244,0,0,0,.255-.255l.03-11.212A.27.27,0,0,0,53.944,6.109ZM18.371,6.094h-3.2a.285.285,0,0,0-.255.3V17.411c0,.3.2.405.45.405h2.882c.3,0,.375-.135.375-.405V6.349A.263.263,0,0,0,18.371,6.094ZM16.8,1.021a2.071,2.071,0,0,0,0,4.143,2.05,2.05,0,0,0,2.041-2.071A2.05,2.05,0,0,0,16.8,1.021ZM41.546.645H38.379A.263.263,0,0,0,38.124.9V7.039H33.156V.9A.263.263,0,0,0,32.9.645H29.7A.263.263,0,0,0,29.448.9V17.576a.274.274,0,0,0,.255.255h3.2a.263.263,0,0,0,.255-.255V10.447h4.968l-.03,7.129a.263.263,0,0,0,.255.255h3.2a.263.263,0,0,0,.255-.255V.9A.263.263,0,0,0,41.546.645ZM13.223,8.03v8.615c0,.06-.015.165-.09.2a9.126,9.126,0,0,1-4.968,1.336C4.428,18.176,0,17.006,0,9.291S3.872-.015,7.655,0c3.272,0,4.593.735,4.8.871a.324.324,0,0,1,.09.21l-.63,2.672a.258.258,0,0,1-.3.255,9,9,0,0,0-3.257-.5c-2.206,0-4.578.63-4.578,5.6s2.251,5.553,3.872,5.553A6.879,6.879,0,0,0,9.531,14.5V11.047H7.325a.27.27,0,0,1-.285-.255V8.03a.27.27,0,0,1,.285-.255h5.613A.27.27,0,0,1,13.223,8.03Z" transform="translate(32.615 4.551)" fill="#ff9702" fill-rule="evenodd"/>
  <g id="Group_10302" data-name="Group 10302" transform="translate(0 0)">
    <path id="Path_9321" data-name="Path 9321" d="M27.306,13.653A13.656,13.656,0,0,1,15.756,27.145q-.222.034-.446.061a13.617,13.617,0,0,1-1.463.1l-.2,0-.2,0a13.616,13.616,0,0,1-1.463-.1q-.224-.027-.446-.061A13.654,13.654,0,1,1,27.306,13.653Z" transform="translate(0)" fill="#fff"/>
    <g id="Group_10192" data-name="Group 10192" transform="translate(0)">
      <path id="Path_9322" data-name="Path 9322" d="M27.306,13.653a13.728,13.728,0,0,1-.084,1.522c-.006.056-.012.112-.019.168q-.053.425-.131.841-.015.083-.032.164a13.67,13.67,0,0,1-9.063,10.259c-.692.134-.938-.291-.938-.655,0-.45.016-1.92.016-3.746a3.265,3.265,0,0,0-.926-2.528c2.364-.263,4.822-1.02,5.8-3.812.02-.055.038-.11.056-.167q.082-.255.147-.532c.013-.055.026-.111.037-.168a9.971,9.971,0,0,0,.2-2.059,5.274,5.274,0,0,0-1.405-3.665,4.9,4.9,0,0,0-.134-3.613s-1.145-.367-3.751,1.4a12.942,12.942,0,0,0-6.838,0C7.627,5.3,6.48,5.662,6.48,5.662a4.908,4.908,0,0,0-.132,3.613,5.285,5.285,0,0,0-1.407,3.665A9.93,9.93,0,0,0,5.138,15c.012.057.024.113.037.168q.065.278.147.533c.018.056.037.112.056.167.975,2.787,3.426,3.554,5.784,3.822a2.908,2.908,0,0,0-.867,1.826,2.906,2.906,0,0,1-3.973-1.135,2.871,2.871,0,0,0-2.093-1.407s-1.332-.017-.093.83a3.62,3.62,0,0,1,1.516,2s.8,2.437,4.6,1.611c.006,1.141.018,2.216.018,2.542,0,.361-.25.783-.933.657a13.672,13.672,0,0,1-9.07-10.26h0c-.011-.054-.022-.109-.031-.163Q.156,15.768.1,15.342c-.007-.056-.013-.111-.02-.168a13.653,13.653,0,1,1,27.222-1.522Z" transform="translate(0)" fill="#ff9702"/>
      <g id="Group_10253" data-name="Group 10253" transform="translate(4.805 19.371)">
        <path id="Path_9323" data-name="Path 9323" d="M90.345,363.244c-.1-.047-.206-.027-.235.042s.023.16.123.205.2.027.234-.041S90.444,363.289,90.345,363.244Z" transform="translate(-90.1 -363.219)" fill="#ff9702"/>
        <path id="Path_9324" data-name="Path 9324" d="M100.917,372.123c-.09-.095-.213-.123-.28-.063a.208.208,0,0,0,.04.284c.086.1.214.124.279.064S101.007,372.22,100.917,372.123Z" transform="translate(-100.037 -371.559)" fill="#ff9702"/>
        <path id="Path_9325" data-name="Path 9325" d="M110.9,385.251c-.086-.12-.221-.173-.3-.115s-.086.2,0,.325.221.176.305.118S110.982,385.375,110.9,385.251Z" transform="translate(-109.439 -383.945)" fill="#ff9702"/>
        <path id="Path_9326" data-name="Path 9326" d="M122.861,399.767c-.118-.112-.278-.135-.354-.052a.263.263,0,0,0,.077.349c.117.113.276.135.351.052S122.979,399.877,122.861,399.767Z" transform="translate(-120.741 -397.721)" fill="#ff9702"/>
        <path id="Path_9327" data-name="Path 9327" d="M139.965,410.809c-.156-.048-.31,0-.342.11s.07.233.224.28.308,0,.342-.11S140.119,410.855,139.965,410.809Z" transform="translate(-136.976 -408.253)" fill="#ff9702"/>
        <path id="Path_9328" data-name="Path 9328" d="M160.568,414.185c-.163,0-.291.095-.291.208s.134.2.3.2.294-.1.29-.208S160.731,414.182,160.568,414.185Z" transform="translate(-156.534 -411.467)" fill="#ff9702"/>
        <path id="Path_9329" data-name="Path 9329" d="M180.44,411.831c-.021-.112-.165-.178-.327-.15s-.274.142-.254.255.167.177.325.148S180.459,411.941,180.44,411.831Z" transform="translate(-175.07 -409.09)" fill="#ff9702"/>
      </g>
    </g>
  </g>
</svg>
