<svg id="linkedin" xmlns="http://www.w3.org/2000/svg" width="97.396" height="25.797" viewBox="0 0 97.396 25.797">
  <path id="Path_10119" data-name="Path 10119" d="M213.882,3.631a1.872,1.872,0,0,1,1.895-1.848h21.846a1.872,1.872,0,0,1,1.895,1.848v22.1a1.872,1.872,0,0,1-1.895,1.848H215.777a1.872,1.872,0,0,1-1.895-1.847V3.631Z" transform="translate(-142.122 -1.783)" fill="#0073b0"/>
  <path id="Path_10120" data-name="Path 10120" d="M1.785,31.889h10.7V28.377H5.657v-13.4H1.785Zm16.115,0V20.24H14.028V31.889ZM15.964,18.65a2.019,2.019,0,1,0,.026-4.025,2.018,2.018,0,1,0-.051,4.025h.025ZM19.7,31.889h3.872V25.384a2.642,2.642,0,0,1,.128-.944,2.119,2.119,0,0,1,1.986-1.416c1.4,0,1.962,1.068,1.962,2.634v6.232h3.871V25.21c0-3.578-1.91-5.243-4.458-5.243a3.857,3.857,0,0,0-3.515,1.963h.026V20.24H19.7C19.748,21.334,19.7,31.889,19.7,31.889ZM36.979,14.977H33.107V31.889h3.872V28.112l.968-1.218,3.032,5h4.763l-5.094-7.231L45.1,19.739H40.443s-3.184,4.4-3.465,4.923Z" transform="translate(-1.785 -10.28)" fill="#0073b0"/>
  <path id="Path_10121" data-name="Path 10121" d="M139.391,27.718a9.439,9.439,0,0,0,.128-1.522c0-3.011-1.529-6.068-5.553-6.068-4.305,0-6.292,3.4-6.292,6.493,0,3.819,2.42,6.2,6.648,6.2a12.038,12.038,0,0,0,4.509-.77l-.51-2.557a10.538,10.538,0,0,1-3.439.52c-1.808,0-3.387-.743-3.515-2.325l8.024.024h0ZM131.342,25.1a2.528,2.528,0,0,1,2.42-2.461,2.217,2.217,0,0,1,2.165,2.461h-4.585Zm17.734-9.434v5.855h-.051a3.869,3.869,0,0,0-3.285-1.366c-2.981,0-5.6,2.385-5.579,6.46,0,3.777,2.369,6.237,5.324,6.237a4.38,4.38,0,0,0,3.9-2.038h.076l.153,1.765h3.439c-.051-.82-.1-2.236-.1-3.628V15.664h-3.872Zm0,11.52a4.3,4.3,0,0,1-.077.844,2.278,2.278,0,0,1-2.267,1.814c-1.6,0-2.649-1.292-2.649-3.329,0-1.913.892-3.454,2.675-3.454a2.289,2.289,0,0,1,2.267,1.838,3.225,3.225,0,0,1,.051.7v1.59Z" transform="translate(-85.08 -10.968)" fill="#0073b0"/>
  <path id="Path_10122" data-name="Path 10122" d="M228.831,31.847V20.2h-3.872V31.847h3.872ZM226.9,18.608a2.157,2.157,0,1,0-.025,0h.025Zm4.078,13.239h3.872v-6.5a2.654,2.654,0,0,1,.128-.945,2.119,2.119,0,0,1,1.987-1.416c1.4,0,1.961,1.068,1.961,2.634v6.231h3.872V25.168c0-3.578-1.91-5.243-4.457-5.243a3.857,3.857,0,0,0-3.515,1.962h.026V20.2h-3.872c.05,1.093,0,11.649,0,11.649Z" transform="translate(-149.3 -10.252)" fill="#fff"/>
</svg>
