<svg id="new-youtube-logo" xmlns="http://www.w3.org/2000/svg" width="108.021" height="23.827" viewBox="0 0 108.021 23.827">
  <path id="Path_10130" data-name="Path 10130" d="M17.965,23.817,10.9,23.688a36.872,36.872,0,0,1-6.825-.422C.661,22.569.419,19.151.166,16.284A48.981,48.981,0,0,1,.611,4.152,4.148,4.148,0,0,1,4.7.424,225.94,225.94,0,0,1,27.624.205,16.531,16.531,0,0,1,30.03.492c3.913.686,4.008,4.559,4.261,7.82a44.33,44.33,0,0,1-.337,9.878c-.388,2.71-1.13,4.981-4.261,5.2-3.924.287-7.758.517-11.694.444C18,23.817,17.977,23.817,17.965,23.817Zm-4.155-6.859c2.957-1.7,5.858-3.368,8.8-5.054-2.963-1.7-5.858-3.368-8.8-5.054Z" transform="translate(0.02 -0.021)" fill="#fe0000"/>
  <g id="Group_10254" data-name="Group 10254" transform="translate(37.898 0.825)">
    <path id="Path_10131" data-name="Path 10131" d="M727.379,34.59c-.135.551-.253.984-.371,1.445h-2.766V14.7h3.227v7.871c.169-.214.253-.3.326-.4a3.5,3.5,0,0,1,2.187-1.445,2.584,2.584,0,0,1,3.165,1.771,9.675,9.675,0,0,1,.495,2.732c.045,2.356.011,4.706-.073,7.061a6.59,6.59,0,0,1-.528,2.131,3.077,3.077,0,0,1-5.33.635C727.62,34.939,727.536,34.81,727.379,34.59Zm.157-5.869v3.9a1.239,1.239,0,0,0,2.356.495,2.038,2.038,0,0,0,.219-.748c.062-2.384.118-4.767.135-7.157A4.6,4.6,0,0,0,730,23.875a1,1,0,0,0-1.636-.557,1.743,1.743,0,0,0-.832,1.5Zm-8.77-7.691h3.379V36.046h-2.637c-.1-.568-.191-1.152-.3-1.838-.18.264-.287.433-.4.6a3.416,3.416,0,0,1-3.587,1.467c-1.254-.2-2.007-1.169-2.176-2.755a13.406,13.406,0,0,1-.073-1.422c-.011-3.514,0-7.039,0-10.552v-.528h3.418v.613c0,3.4-.011,6.786.011,10.181a8.626,8.626,0,0,0,.135,1.467.78.78,0,0,0,.939.641,1.38,1.38,0,0,0,1.321-1.417V21.694A5.07,5.07,0,0,1,718.766,21.03ZM695.5,21.019h3.4v.635c0,3.379-.011,6.752.011,10.119a7.034,7.034,0,0,0,.146,1.456.784.784,0,0,0,1.012.663,1.357,1.357,0,0,0,1.242-1.422V21.042h3.379v15h-2.625c-.1-.557-.191-1.13-.315-1.855-.169.253-.264.4-.36.551a3.429,3.429,0,0,1-3.609,1.529,2.627,2.627,0,0,1-2.164-2.524,10.083,10.083,0,0,1-.107-1.36c-.011-3.649-.011-7.314-.011-10.963Zm-1.743,8.017c-.011.506-.045,1.012-.073,1.518-.129,1.518-.191,3.671-1.417,4.779a4.275,4.275,0,0,1-2.794.984,8.612,8.612,0,0,1-1.372-.051c-2.153-.326-3.154-1.276-3.514-3.643a25.342,25.342,0,0,1,.045-8.242c.506-2.828,2.249-3.829,4.959-3.643,2.53.18,3.66,1.838,3.958,4.2A28.467,28.467,0,0,1,693.76,29.036Zm-3.441-.517c0-.961.023-1.928-.011-2.89a9.893,9.893,0,0,0-.214-1.67,1.025,1.025,0,0,0-1.046-.928,1.084,1.084,0,0,0-1.023.905,2.518,2.518,0,0,0-.129.663c0,1.507-.011,3.019-.022,4.526a13.1,13.1,0,0,0,.253,4.222.922.922,0,0,0,.939.635.907.907,0,0,0,.9-.613,2.525,2.525,0,0,0,.242-.961C690.246,31.116,690.319,29.817,690.319,28.519Zm-10.687-2.828c.3-1.456.579-2.878.888-4.306.388-1.816.821-3.632,1.2-5.453.1-.444.276-.551.7-.54.905.034,1.827.011,2.794.011-.315,1.158-.624,2.26-.928,3.345q-1.442,5.11-2.873,10.243a3.158,3.158,0,0,0-.107.832c-.011,1.866,0,3.727,0,5.594v.607h-3.3c-.011-.169-.034-.337-.034-.506,0-1.057-.084-2.119.011-3.165.242-2.513-.557-4.824-1.2-7.162-.854-3.092-1.72-6.2-2.575-9.287-.045-.146-.062-.3-.107-.483h3.367C678.176,18.832,678.89,22.245,679.632,25.691ZM744.2,29.609H738.51c.062,1.141.084,2.226.2,3.3a1.056,1.056,0,0,0,1.141,1.074,1.139,1.139,0,0,0,1.226-1.068,6.378,6.378,0,0,0,.107-.731c.022-.219.034-.455.051-.77.961.051,1.9.107,2.828.146a3.629,3.629,0,0,1-2.069,4.3,5.912,5.912,0,0,1-3.924.118,2.887,2.887,0,0,1-2.024-1.855,10.892,10.892,0,0,1-.652-2.743,30.733,30.733,0,0,1,.118-6.892,7.794,7.794,0,0,1,.287-1.119,3.431,3.431,0,0,1,3.092-2.625,9.928,9.928,0,0,1,2.614.1,3.035,3.035,0,0,1,2.44,2.541,9.594,9.594,0,0,1,.276,1.866c.006,1.434-.023,2.856-.023,4.368Zm-3.232-1.973c0-1.13.011-2.193-.011-3.261a2.158,2.158,0,0,0-.191-.759,1.011,1.011,0,0,0-1.068-.6.855.855,0,0,0-.9.675,14.14,14.14,0,0,0-.231,3.958C739.426,27.636,740.208,27.636,740.967,27.636Z" transform="translate(-674.1 -14.7)" fill="#fe0000"/>
    <path id="Path_10132" data-name="Path 10132" d="M1208.445,30.71H1205.1V28h9.985v2.693h-3.323V48.576h-3.311Z" transform="translate(-1175.248 -27.252)" fill="#fe0000"/>
  </g>
</svg>
